PathFileType	4	(X/Y/Z)	C:/Users/opensim2020/Desktop/walking_exp_matlab/subject01_walking13_straight_01.trc																																																																																																																												
DataRate	CameraRate	NumFrames	NumMarkers	Units	OrigDataRate	OrigDataStartFrame	OrigNumFrames																																																																																																																								
100	100	8	42	mm	100	726	142																																																																																																																								
Frame#	Time	LFHD			RFHD			LBHD			RBHD			C7			T10			CLAV			STRN			RBAK			LSHO			LUPA			LELB			LFRM			LWRA			LWRB			LFIN			RSHO			RUPA			RELB			RFRM			RWRA			RWRB			RFIN			LASI			RASI			LPSI			RPSI			LTHI			LKNE			LTIB			LANK			LHEE			LTOE			RTHI			RKNE			RTIB			RANK			RHEE			RTOE			*39			*40			*41		
		X1	Y1	Z1	X2	Y2	Z2	X3	Y3	Z3	X4	Y4	Z4	X5	Y5	Z5	X6	Y6	Z6	X7	Y7	Z7	X8	Y8	Z8	X9	Y9	Z9	X10	Y10	Z10	X11	Y11	Z11	X12	Y12	Z12	X13	Y13	Z13	X14	Y14	Z14	X15	Y15	Z15	X16	Y16	Z16	X17	Y17	Z17	X18	Y18	Z18	X19	Y19	Z19	X20	Y20	Z20	X21	Y21	Z21	X22	Y22	Z22	X23	Y23	Z23	X24	Y24	Z24	X25	Y25	Z25	X26	Y26	Z26	X27	Y27	Z27	X28	Y28	Z28	X29	Y29	Z29	X30	Y30	Z30	X31	Y31	Z31	X32	Y32	Z32	X33	Y33	Z33	X34	Y34	Z34	X35	Y35	Z35	X36	Y36	Z36	X37	Y37	Z37	X38	Y38	Z38	X39	Y39	Z39	X40	Y40	Z40	X41	Y41	Z41	X42	Y42	Z42
																																																																																																																															
125	1.24	943.40283	1646.31055	-1026.29956	946.14124	1646.79639	-911.47974	821.53644	1621.44495	-1032.13672	820.57953	1621.0675	-910.57111	748.51593	1421.22144	-994.92786	717.80109	1123.06824	-990.31421	891.97235	1351.2561	-987.76044	938.52368	1200.29333	-999.92365	693.2627	1218.97742	-927.10168	835.30817	1387.46155	-1149.53479	833.30353	1215.92993	-1251.92175	865.11804	1068.34607	-1284.03259	978.724	1028.31396	-1280.58679	1106.59399	1025.54065	-1228.83667	1087.58997	978.77899	-1260.30078	1169.68835	984.10931	-1258.22815	818.24823	1374.69397	-838.94952	725.63226	1182.85181	-752.89307	706.82977	1060.72119	-752.59625	700.54352	941.63226	-723.474	746.13507	807.25714	-740.1228	701.38049	819.48541	-705.69287	717.92377	736.13635	-702.59479	892.14539	923.85016	-1114.12756	916.25494	927.15997	-900.85028	712.60254	929.17133	-1040.8645	730.28046	930.22687	-895.67365	812.78064	592.24353	-1181.99609	777.22473	460.95068	-1179.92749	629.21283	346.11984	-1187.46106	470.87549	189.29817	-1149.19214	432.30811	214.80377	-1096.41931	496.23953	43.013	-1120.2998	949.96246	603.10669	-850.00311	1002.59503	455.93326	-888.67944	979.84943	278.79678	-884.88483	981.55859	77.47951	-943.04968	933.01404	40.78529	-993.53552	1122.61475	41.97266	-947.133	942.93823	1681.89355	-933.99091	1973.15454	1023.77539	-3101.8313	2012.46692	1022.07654	-3140.69751
126	1.25	956.11169	1647.73059	-1022.83801	958.52002	1647.94775	-908.1087	834.39941	1622.29309	-1029.03711	833.64508	1621.43726	-907.66571	761.80481	1422.29431	-992.6394	731.1394	1124.11511	-988.90063	905.32385	1352.27808	-985.12268	951.78113	1201.37573	-997.45514	706.56439	1219.8468	-925.43427	849.00409	1388.41418	-1147.11975	845.16937	1216.71228	-1249.30774	875.07513	1068.97253	-1281.69812	988.0462	1027.26404	-1278.37463	1115.8595	1022.12781	-1226.38232	1096.04517	975.71405	-1258.01221	1178.24561	979.35919	-1255.57031	831.43707	1375.67993	-836.40936	740.60986	1183.04529	-750.53009	722.3537	1060.86829	-750.7738	716.55664	941.82654	-721.69	762.6925	807.61731	-738.39642	717.99133	819.7699	-703.87207	734.6712	736.17084	-700.93756	906.04797	924.85718	-1111.35254	928.81335	928.67346	-898.48224	726.01422	929.63721	-1040.00671	742.87854	931.95502	-894.98547	833.34094	591.66589	-1181.18787	801.33075	459.80783	-1180.27173	652.18536	348.2522	-1189.01428	489.42957	197.76117	-1150.88196	452.84573	226.04416	-1098.88037	504.18561	48.60305	-1122.30322	963.59796	603.99896	-847.82202	1012.21472	455.10889	-887.46631	984.96497	278.8269	-883.66766	982.04956	77.4621	-942.98236	933.12805	40.99335	-993.28577	1123.18445	41.52874	-947.11627	954.95349	1683.10352	-930.58722	1973.1106	1023.46185	-3101.80981	2012.52417	1022.05273	-3140.67114
127	1.26	968.87012	1649.2666	-1019.44312	970.80872	1649.05237	-904.78009	847.33203	1623.3219	-1026.10083	845.68811	1622.22412	-904.59912	775.21814	1423.6615	-990.43274	744.03528	1125.41663	-987.64032	918.50317	1353.53625	-982.71387	964.77936	1202.46643	-995.11755	719.62415	1220.99829	-923.69531	862.59808	1389.56519	-1144.87695	856.95081	1217.65466	-1246.92212	884.77539	1069.73474	-1279.63782	996.95807	1025.88525	-1275.96582	1124.67822	1018.25555	-1224.10181	1103.94556	972.21283	-1255.7843	1186.25781	973.91022	-1252.97241	844.59613	1376.91833	-834.19623	755.44476	1183.6322	-748.08435	737.94006	1061.26819	-748.93964	732.78229	942.20105	-720.02594	779.75812	808.17426	-736.71118	735.24554	820.21722	-702.16534	752.22754	736.56445	-699.36176	919.42938	925.89771	-1109.42871	941.17133	930.23505	-895.9447	739.23511	930.27118	-1038.95117	755.2691	933.46246	-894.04852	854.45612	591.52338	-1180.21179	826.48236	458.979	-1180.24646	675.84698	350.53152	-1190.46777	509.3562	206.95195	-1151.58984	474.31836	236.65538	-1099.62952	515.36987	55.34445	-1124.95715	974.29218	604.5827	-845.65363	1020.35822	454.71057	-885.73737	989.64594	279.05435	-883.09302	982.54181	77.71923	-942.90686	933.22601	41.32249	-993.10785	1123.7345	41.18871	-947.33112	966.74133	1684.34351	-927.09851	1973.17773	1023.42194	-3102.00464	2012.50659	1022.11322	-3140.61011
128	1.27	981.64044	1650.81494	-1016.02893	983.15851	1650.29089	-901.32666	860.20142	1624.5426	-1023.28918	858.56329	1623.03467	-901.90613	788.50073	1425.22998	-988.44458	756.82233	1127.01538	-986.3136	931.49377	1354.8479	-980.52228	977.63855	1203.73071	-992.93445	732.40912	1222.47742	-921.9234	875.98053	1390.83911	-1142.74768	868.58051	1218.73608	-1244.63	894.16656	1070.5304	-1277.1748	1005.52344	1024.36865	-1273.71948	1133.08044	1013.91449	-1221.89722	1111.24353	968.18207	-1253.47351	1193.72876	967.82819	-1250.47766	857.16522	1378.37927	-832.125	770.26874	1184.19946	-746.01727	753.45343	1061.82849	-747.14008	749.35291	942.70441	-718.34528	797.31299	809.01959	-735.10638	752.55444	820.64825	-700.45447	770.22882	737.11835	-697.81573	932.64313	927.20203	-1107.4303	953.33252	931.72479	-893.4491	752.34045	930.99109	-1037.80823	767.27014	934.87286	-892.78857	875.88678	591.66974	-1179.16455	852.08093	458.63751	-1179.92261	699.98126	352.95932	-1191.62463	529.39087	215.64867	-1150.9176	496.50751	245.4404	-1097.52515	530.10992	62.34233	-1129.02405	981.73346	604.54352	-844.32031	1026.90405	453.86929	-884.12158	993.64203	278.8215	-882.42242	982.836	77.91921	-942.79242	932.98596	41.85571	-993.18018	1123.89197	40.74198	-947.32715	978.66217	1685.55298	-923.45966	1973.1665	1023.59961	-3101.98389	2012.56116	1022.12982	-3140.59082
129	1.28	994.35291	1652.43347	-1012.81482	995.23029	1651.27747	-898.24585	873.02655	1625.86096	-1020.56909	870.53174	1623.96082	-899.14441	801.37323	1426.8092	-986.47821	769.53033	1128.60083	-984.97577	944.34412	1356.28564	-978.51215	990.33618	1205.04834	-990.94794	745.06085	1224.13147	-920.07672	889.1557	1392.27747	-1140.72961	880.03821	1219.99255	-1242.65271	903.34692	1071.46143	-1274.45313	1013.65399	1022.67865	-1271.50024	1141.11572	1009.17682	-1219.82581	1118.09778	963.98541	-1251.24255	1200.61987	961.1806	-1248.03125	869.87122	1379.87354	-830.37714	784.71912	1185.03015	-743.85864	768.84821	1062.49463	-745.26764	765.82983	943.33771	-716.69696	815.41241	810.15466	-733.48456	770.55243	821.33966	-698.77753	789.35101	738.10138	-696.05334	945.77728	928.71423	-1105.2876	965.24292	933.16913	-890.79108	765.28851	931.95343	-1036.51404	779.04095	936.00806	-891.43787	897.75891	592.15637	-1177.96021	877.63525	458.86862	-1179.31909	724.55652	355.5947	-1192.4845	549.93512	223.96503	-1149.19434	518.26178	252.30939	-1093.44482	548.2475	70.02773	-1134.323	987.71411	603.93921	-843.01208	1032.87866	453.31766	-882.41455	996.87964	278.7113	-881.56146	983.10962	78.05432	-942.74042	933.11804	42.0913	-993.22174	1124.1217	40.46713	-947.36652	990.86316	1686.76941	-920.03674	1973.19702	1023.49664	-3101.87988	2012.58362	1022.1499	-3140.69116
130	1.29	1007.03986	1654.07898	-1009.69977	1007.49982	1652.51538	-895.14526	885.80182	1627.38647	-1018.03027	882.88629	1625.04468	-896.5788	813.9718	1428.27515	-984.89648	782.08966	1130.25903	-983.58124	956.90399	1357.85425	-976.64893	1002.8833	1206.50549	-989.0213	757.55023	1225.89282	-918.16504	902.11847	1393.86377	-1138.94629	891.12799	1221.46826	-1240.98462	912.24255	1072.37292	-1271.93372	1021.39832	1020.7793	-1269.18677	1148.71912	1004.0639	-1217.8374	1124.42114	959.4906	-1249.07458	1206.84973	953.94336	-1245.68213	882.51489	1381.46619	-828.66821	798.95856	1186.06848	-741.79114	783.91345	1063.33313	-743.41302	782.49713	944.10364	-714.96014	834.03442	811.84296	-731.58368	788.72211	822.19324	-697.31403	808.90485	739.22284	-694.33374	958.68628	930.15503	-1103.71008	976.91516	934.4649	-888.09229	778.0343	933.10394	-1035.15686	790.87012	937.34436	-889.98914	919.76379	593.32361	-1176.8197	902.90143	459.96408	-1178.34473	749.22314	358.5062	-1192.65918	571.61035	231.24814	-1146.61707	540.39484	257.39825	-1088.89331	570.20825	77.23864	-1139.3407	992.91156	602.84546	-842.02606	1038.35901	452.71582	-880.6825	999.9881	278.68845	-880.81024	983.52136	78.10074	-942.6322	933.28937	42.67619	-993.16113	1124.46802	40.44633	-947.22888	1003.28815	1688.08508	-916.67181	1973.12842	1023.5799	-3101.84058	2012.5719	1022.20502	-3140.61279
131	1.3	1019.67566	1655.74622	-1006.7843	1019.86548	1653.8822	-892.14783	898.51129	1628.99841	-1015.56342	895.13855	1626.26208	-894.21777	826.4068	1429.78564	-983.23889	794.58179	1131.98694	-982.08984	969.38348	1359.49719	-974.92212	1015.37201	1208.09583	-987.30121	769.99554	1227.61609	-916.19098	914.85022	1395.56006	-1137.2915	902.10242	1223.07263	-1239.30273	920.83417	1073.29419	-1269.44373	1028.79504	1018.7677	-1266.9408	1155.87793	998.58679	-1215.92566	1130.20483	954.68201	-1246.95886	1212.48547	946.39935	-1243.49683	894.87701	1383.05505	-827.10779	812.89655	1187.2926	-739.77515	798.77606	1064.26611	-741.54651	799.32574	944.82056	-713.22803	852.48083	813.09003	-730.3703	807.72437	823.07452	-695.78259	829.32037	740.59625	-692.61792	971.63739	931.96136	-1101.63989	988.42126	935.66449	-885.22046	790.68604	934.51575	-1033.62366	802.3457	938.72742	-888.50677	941.7157	595.31903	-1175.38708	927.77771	462.03754	-1176.8927	773.91913	361.69113	-1192.14685	594.53406	237.66629	-1143.77551	562.71863	261.07965	-1084.70544	595.19861	83.31538	-1143.71875	998.03204	601.97998	-841.008	1043.16235	451.75092	-878.75159	1002.41656	278.26605	-880.1908	983.7713	78.21918	-942.60498	933.20447	43.04278	-993.3056	1124.45679	40.20739	-947.14569	1015.81494	1689.56665	-913.61267	1973.13867	1023.41205	-3101.96948	2012.55371	1022.13165	-3140.71411
132	1.31	1032.22815	1657.41724	-1003.98376	1032.04297	1655.22729	-889.414	911.06628	1630.75903	-1013.2525	907.35889	1627.66248	-891.97852	838.77325	1431.40186	-981.76709	806.98309	1133.70874	-980.67926	981.77527	1361.22241	-973.32794	1027.76123	1209.73682	-985.55664	782.26166	1229.40576	-914.43506	927.38086	1397.29675	-1135.67639	912.92963	1224.76038	-1237.54382	929.36285	1074.31116	-1266.99756	1035.87036	1016.61249	-1264.67273	1162.55115	992.79095	-1214.06775	1135.4436	949.63757	-1244.88721	1217.4574	938.6203	-1241.36316	907.27887	1384.80566	-825.46613	826.56573	1188.68848	-737.76874	813.36176	1065.27002	-739.62872	816.15717	945.58282	-711.42194	871.85468	814.98059	-728.83588	827.17096	824.06091	-693.90405	850.24847	742.11652	-690.87872	985.47089	934.28217	-1099.34656	999.73474	936.73376	-882.29639	803.2854	936.19586	-1032.20886	814.17023	940.08136	-887.51062	963.26251	598.06097	-1174.00159	952.15405	465.04581	-1175.49902	798.41559	364.9491	-1190.48718	618.25861	242.41431	-1141.2041	585.43903	263.49637	-1081.48975	622.35779	88.59705	-1147.27319	1003.37671	601.58789	-839.75739	1047.42004	450.84152	-877.07202	1004.45715	277.80771	-879.24487	984.02588	78.38844	-942.3999	933.53619	43.29915	-993.25891	1124.52917	40.16777	-947.04865	1028.17529	1691.03796	-910.67456	1973.01453	1023.81995	-3101.94287	2012.49951	1022.11011	-3140.66382
